<mxfile host="app.diagrams.net" agent="Mozilla/5.0 (Windows NT 10.0; Win64; x64) AppleWebKit/537.36 (KHTML, like Gecko) Chrome/128.0.0.0 Safari/537.36" version="24.7.12">
  <diagram name="PÃ¡gina-1" id="wu1wQCES_7svhG46C2FC">
    <mxGraphModel dx="1257" dy="620" grid="0" gridSize="10" guides="1" tooltips="1" connect="1" arrows="1" fold="1" page="1" pageScale="1" pageWidth="827" pageHeight="1169" math="0" shadow="0">
      <root>
        <mxCell id="0" />
        <mxCell id="1" parent="0" />
        <mxCell id="3etEzGSmPm65g7-MEbVk-1" value="&lt;b&gt;contador = contador + 1&lt;/b&gt;" style="rounded=0;whiteSpace=wrap;html=1;" vertex="1" parent="1">
          <mxGeometry x="311" y="754" width="153" height="60" as="geometry" />
        </mxCell>
        <mxCell id="3etEzGSmPm65g7-MEbVk-24" style="edgeStyle=orthogonalEdgeStyle;rounded=0;orthogonalLoop=1;jettySize=auto;html=1;" edge="1" parent="1" source="3etEzGSmPm65g7-MEbVk-2" target="3etEzGSmPm65g7-MEbVk-1">
          <mxGeometry relative="1" as="geometry">
            <Array as="points">
              <mxPoint x="184" y="719" />
              <mxPoint x="387" y="719" />
            </Array>
          </mxGeometry>
        </mxCell>
        <mxCell id="3etEzGSmPm65g7-MEbVk-2" value="&lt;b&gt;cant_muj = cant_muj + 1&lt;/b&gt;" style="rounded=0;whiteSpace=wrap;html=1;" vertex="1" parent="1">
          <mxGeometry x="107" y="640" width="153" height="60" as="geometry" />
        </mxCell>
        <mxCell id="3etEzGSmPm65g7-MEbVk-3" value="&lt;b&gt;contador = 1&lt;/b&gt;&lt;div&gt;&lt;b&gt;cant_homb = 0&lt;/b&gt;&lt;/div&gt;&lt;div&gt;&lt;b&gt;porc_homb = 0&lt;/b&gt;&lt;/div&gt;&lt;div&gt;&lt;b&gt;cant_muj = 0&lt;/b&gt;&lt;/div&gt;&lt;div&gt;&lt;b&gt;porc_muj = 0&lt;/b&gt;&lt;/div&gt;" style="rounded=0;whiteSpace=wrap;html=1;" vertex="1" parent="1">
          <mxGeometry x="330.5" y="86" width="163.5" height="80" as="geometry" />
        </mxCell>
        <mxCell id="3etEzGSmPm65g7-MEbVk-4" value="&lt;b&gt;porc_muj = (cant_muj / 6) * 100&lt;/b&gt;&lt;div&gt;&lt;b&gt;porc_homb = (cant_homb / 6) * 100&lt;/b&gt;&lt;br&gt;&lt;/div&gt;" style="rounded=0;whiteSpace=wrap;html=1;" vertex="1" parent="1">
          <mxGeometry x="287" y="876" width="216" height="69" as="geometry" />
        </mxCell>
        <mxCell id="3etEzGSmPm65g7-MEbVk-25" style="edgeStyle=orthogonalEdgeStyle;rounded=0;orthogonalLoop=1;jettySize=auto;html=1;exitX=0.5;exitY=1;exitDx=0;exitDy=0;entryX=0.5;entryY=0;entryDx=0;entryDy=0;" edge="1" parent="1" source="3etEzGSmPm65g7-MEbVk-5" target="3etEzGSmPm65g7-MEbVk-1">
          <mxGeometry relative="1" as="geometry">
            <Array as="points">
              <mxPoint x="606" y="720" />
              <mxPoint x="387" y="720" />
            </Array>
          </mxGeometry>
        </mxCell>
        <mxCell id="3etEzGSmPm65g7-MEbVk-5" value="&lt;b&gt;cant_homb = cant_homb + 1&lt;/b&gt;" style="rounded=0;whiteSpace=wrap;html=1;" vertex="1" parent="1">
          <mxGeometry x="524.5" y="646" width="176" height="60" as="geometry" />
        </mxCell>
        <mxCell id="3etEzGSmPm65g7-MEbVk-6" value="&lt;b&gt;Fin&lt;/b&gt;" style="strokeWidth=2;html=1;shape=mxgraph.flowchart.terminator;whiteSpace=wrap;" vertex="1" parent="1">
          <mxGeometry x="340" y="1104" width="100" height="60" as="geometry" />
        </mxCell>
        <mxCell id="3etEzGSmPm65g7-MEbVk-15" style="edgeStyle=orthogonalEdgeStyle;rounded=0;orthogonalLoop=1;jettySize=auto;html=1;exitX=0.5;exitY=1;exitDx=0;exitDy=0;exitPerimeter=0;entryX=0.5;entryY=0;entryDx=0;entryDy=0;" edge="1" parent="1" source="3etEzGSmPm65g7-MEbVk-7" target="3etEzGSmPm65g7-MEbVk-3">
          <mxGeometry relative="1" as="geometry" />
        </mxCell>
        <mxCell id="3etEzGSmPm65g7-MEbVk-7" value="&lt;b&gt;Inicio&lt;/b&gt;" style="strokeWidth=2;html=1;shape=mxgraph.flowchart.terminator;whiteSpace=wrap;" vertex="1" parent="1">
          <mxGeometry x="364" y="7" width="100" height="60" as="geometry" />
        </mxCell>
        <mxCell id="3etEzGSmPm65g7-MEbVk-8" value="&lt;b&gt;contador &amp;lt;= 6&lt;/b&gt;" style="strokeWidth=2;html=1;shape=mxgraph.flowchart.decision;whiteSpace=wrap;" vertex="1" parent="1">
          <mxGeometry x="356" y="188" width="107" height="110" as="geometry" />
        </mxCell>
        <mxCell id="3etEzGSmPm65g7-MEbVk-18" style="edgeStyle=orthogonalEdgeStyle;rounded=0;orthogonalLoop=1;jettySize=auto;html=1;exitX=0.5;exitY=1;exitDx=0;exitDy=0;exitPerimeter=0;entryX=0.5;entryY=0;entryDx=0;entryDy=0;" edge="1" parent="1" source="3etEzGSmPm65g7-MEbVk-9" target="3etEzGSmPm65g7-MEbVk-12">
          <mxGeometry relative="1" as="geometry" />
        </mxCell>
        <mxCell id="3etEzGSmPm65g7-MEbVk-9" value="&lt;b&gt;&amp;nbsp; &amp;nbsp; &amp;nbsp;&quot;Ingrese el sexo de 6 personas, digite 1 si es mujer o 2 si es hombre&quot;&lt;/b&gt;&lt;div&gt;&lt;b&gt;contador&lt;/b&gt;&lt;/div&gt;" style="strokeWidth=2;html=1;shape=mxgraph.flowchart.display;whiteSpace=wrap;" vertex="1" parent="1">
          <mxGeometry x="324" y="360" width="160" height="100" as="geometry" />
        </mxCell>
        <mxCell id="3etEzGSmPm65g7-MEbVk-10" value="&lt;b&gt;&amp;nbsp; &amp;nbsp; &amp;nbsp; &quot;El porcentaje de hombres es de &quot;&lt;/b&gt;&lt;div&gt;&lt;b&gt;porc_homb&lt;/b&gt;&lt;/div&gt;&lt;div&gt;&lt;b&gt;&quot;El porcentaje de mujeres es de &quot;&lt;/b&gt;&lt;/div&gt;&lt;div&gt;&lt;b&gt;porc_muj&lt;/b&gt;&lt;/div&gt;" style="strokeWidth=2;html=1;shape=mxgraph.flowchart.display;whiteSpace=wrap;" vertex="1" parent="1">
          <mxGeometry x="272" y="963" width="231" height="114" as="geometry" />
        </mxCell>
        <mxCell id="3etEzGSmPm65g7-MEbVk-20" style="edgeStyle=orthogonalEdgeStyle;rounded=0;orthogonalLoop=1;jettySize=auto;html=1;exitX=0;exitY=0.5;exitDx=0;exitDy=0;exitPerimeter=0;" edge="1" parent="1" source="3etEzGSmPm65g7-MEbVk-11" target="3etEzGSmPm65g7-MEbVk-13">
          <mxGeometry relative="1" as="geometry" />
        </mxCell>
        <mxCell id="3etEzGSmPm65g7-MEbVk-21" style="edgeStyle=orthogonalEdgeStyle;rounded=0;orthogonalLoop=1;jettySize=auto;html=1;exitX=1;exitY=0.5;exitDx=0;exitDy=0;exitPerimeter=0;" edge="1" parent="1" source="3etEzGSmPm65g7-MEbVk-11" target="3etEzGSmPm65g7-MEbVk-14">
          <mxGeometry relative="1" as="geometry" />
        </mxCell>
        <mxCell id="3etEzGSmPm65g7-MEbVk-11" value="&lt;b&gt;sexo ==1&lt;/b&gt;" style="strokeWidth=2;html=1;shape=mxgraph.flowchart.decision;whiteSpace=wrap;" vertex="1" parent="1">
          <mxGeometry x="355.5" y="551" width="104" height="106" as="geometry" />
        </mxCell>
        <mxCell id="3etEzGSmPm65g7-MEbVk-12" value="&lt;b&gt;sexo&lt;/b&gt;" style="shape=parallelogram;html=1;strokeWidth=2;perimeter=parallelogramPerimeter;whiteSpace=wrap;rounded=1;arcSize=12;size=0.23;" vertex="1" parent="1">
          <mxGeometry x="356" y="474" width="100" height="60" as="geometry" />
        </mxCell>
        <mxCell id="3etEzGSmPm65g7-MEbVk-22" style="edgeStyle=orthogonalEdgeStyle;rounded=0;orthogonalLoop=1;jettySize=auto;html=1;" edge="1" parent="1" source="3etEzGSmPm65g7-MEbVk-13" target="3etEzGSmPm65g7-MEbVk-2">
          <mxGeometry relative="1" as="geometry" />
        </mxCell>
        <mxCell id="3etEzGSmPm65g7-MEbVk-13" value="&lt;b&gt;Verdadero&lt;/b&gt;" style="text;html=1;align=center;verticalAlign=middle;resizable=0;points=[];autosize=1;strokeColor=none;fillColor=none;" vertex="1" parent="1">
          <mxGeometry x="145" y="591" width="77" height="26" as="geometry" />
        </mxCell>
        <mxCell id="3etEzGSmPm65g7-MEbVk-23" style="edgeStyle=orthogonalEdgeStyle;rounded=0;orthogonalLoop=1;jettySize=auto;html=1;entryX=0.5;entryY=0;entryDx=0;entryDy=0;" edge="1" parent="1" source="3etEzGSmPm65g7-MEbVk-14" target="3etEzGSmPm65g7-MEbVk-5">
          <mxGeometry relative="1" as="geometry" />
        </mxCell>
        <mxCell id="3etEzGSmPm65g7-MEbVk-14" value="&lt;b&gt;Falso&lt;/b&gt;" style="text;html=1;align=center;verticalAlign=middle;resizable=0;points=[];autosize=1;strokeColor=none;fillColor=none;" vertex="1" parent="1">
          <mxGeometry x="588" y="591" width="49" height="26" as="geometry" />
        </mxCell>
        <mxCell id="3etEzGSmPm65g7-MEbVk-16" style="edgeStyle=orthogonalEdgeStyle;rounded=0;orthogonalLoop=1;jettySize=auto;html=1;exitX=0.5;exitY=1;exitDx=0;exitDy=0;entryX=0.5;entryY=0;entryDx=0;entryDy=0;entryPerimeter=0;" edge="1" parent="1" source="3etEzGSmPm65g7-MEbVk-3" target="3etEzGSmPm65g7-MEbVk-8">
          <mxGeometry relative="1" as="geometry" />
        </mxCell>
        <mxCell id="3etEzGSmPm65g7-MEbVk-17" style="edgeStyle=orthogonalEdgeStyle;rounded=0;orthogonalLoop=1;jettySize=auto;html=1;exitX=0.5;exitY=1;exitDx=0;exitDy=0;exitPerimeter=0;entryX=0.5;entryY=0;entryDx=0;entryDy=0;entryPerimeter=0;" edge="1" parent="1" source="3etEzGSmPm65g7-MEbVk-27" target="3etEzGSmPm65g7-MEbVk-9">
          <mxGeometry relative="1" as="geometry" />
        </mxCell>
        <mxCell id="3etEzGSmPm65g7-MEbVk-19" style="edgeStyle=orthogonalEdgeStyle;rounded=0;orthogonalLoop=1;jettySize=auto;html=1;exitX=0.5;exitY=1;exitDx=0;exitDy=0;entryX=0.5;entryY=0;entryDx=0;entryDy=0;entryPerimeter=0;" edge="1" parent="1" source="3etEzGSmPm65g7-MEbVk-12" target="3etEzGSmPm65g7-MEbVk-11">
          <mxGeometry relative="1" as="geometry" />
        </mxCell>
        <mxCell id="3etEzGSmPm65g7-MEbVk-26" style="edgeStyle=orthogonalEdgeStyle;rounded=0;orthogonalLoop=1;jettySize=auto;html=1;exitX=0.5;exitY=1;exitDx=0;exitDy=0;entryX=0.5;entryY=0;entryDx=0;entryDy=0;entryPerimeter=0;" edge="1" parent="1" source="3etEzGSmPm65g7-MEbVk-1" target="3etEzGSmPm65g7-MEbVk-8">
          <mxGeometry relative="1" as="geometry">
            <Array as="points">
              <mxPoint x="387" y="834" />
              <mxPoint x="49" y="834" />
              <mxPoint x="49" y="188" />
            </Array>
          </mxGeometry>
        </mxCell>
        <mxCell id="3etEzGSmPm65g7-MEbVk-28" value="" style="edgeStyle=orthogonalEdgeStyle;rounded=0;orthogonalLoop=1;jettySize=auto;html=1;exitX=0.5;exitY=1;exitDx=0;exitDy=0;exitPerimeter=0;entryX=0.5;entryY=0;entryDx=0;entryDy=0;entryPerimeter=0;" edge="1" parent="1" source="3etEzGSmPm65g7-MEbVk-8" target="3etEzGSmPm65g7-MEbVk-27">
          <mxGeometry relative="1" as="geometry">
            <mxPoint x="410" y="298" as="sourcePoint" />
            <mxPoint x="410" y="344" as="targetPoint" />
          </mxGeometry>
        </mxCell>
        <mxCell id="3etEzGSmPm65g7-MEbVk-27" value="&lt;b&gt;Verdadero&lt;/b&gt;" style="text;html=1;align=center;verticalAlign=middle;resizable=0;points=[];autosize=1;strokeColor=none;fillColor=none;" vertex="1" parent="1">
          <mxGeometry x="369" y="316" width="77" height="26" as="geometry" />
        </mxCell>
        <mxCell id="3etEzGSmPm65g7-MEbVk-32" style="edgeStyle=orthogonalEdgeStyle;rounded=0;orthogonalLoop=1;jettySize=auto;html=1;entryX=0.75;entryY=0;entryDx=0;entryDy=0;" edge="1" parent="1" source="3etEzGSmPm65g7-MEbVk-29" target="3etEzGSmPm65g7-MEbVk-4">
          <mxGeometry relative="1" as="geometry">
            <Array as="points">
              <mxPoint x="736" y="839" />
              <mxPoint x="449" y="839" />
            </Array>
          </mxGeometry>
        </mxCell>
        <mxCell id="3etEzGSmPm65g7-MEbVk-29" value="&lt;b&gt;Falso&lt;/b&gt;" style="text;html=1;align=center;verticalAlign=middle;resizable=0;points=[];autosize=1;strokeColor=none;fillColor=none;" vertex="1" parent="1">
          <mxGeometry x="731" y="225" width="49" height="26" as="geometry" />
        </mxCell>
        <mxCell id="3etEzGSmPm65g7-MEbVk-30" style="edgeStyle=orthogonalEdgeStyle;rounded=0;orthogonalLoop=1;jettySize=auto;html=1;exitX=1;exitY=0.5;exitDx=0;exitDy=0;exitPerimeter=0;entryX=0.073;entryY=0.736;entryDx=0;entryDy=0;entryPerimeter=0;" edge="1" parent="1" source="3etEzGSmPm65g7-MEbVk-8" target="3etEzGSmPm65g7-MEbVk-29">
          <mxGeometry relative="1" as="geometry" />
        </mxCell>
        <mxCell id="3etEzGSmPm65g7-MEbVk-33" style="edgeStyle=orthogonalEdgeStyle;rounded=0;orthogonalLoop=1;jettySize=auto;html=1;exitX=0.5;exitY=1;exitDx=0;exitDy=0;entryX=0.5;entryY=0;entryDx=0;entryDy=0;entryPerimeter=0;" edge="1" parent="1" source="3etEzGSmPm65g7-MEbVk-4" target="3etEzGSmPm65g7-MEbVk-10">
          <mxGeometry relative="1" as="geometry" />
        </mxCell>
        <mxCell id="3etEzGSmPm65g7-MEbVk-34" style="edgeStyle=orthogonalEdgeStyle;rounded=0;orthogonalLoop=1;jettySize=auto;html=1;exitX=0.5;exitY=1;exitDx=0;exitDy=0;exitPerimeter=0;entryX=0.5;entryY=0;entryDx=0;entryDy=0;entryPerimeter=0;" edge="1" parent="1" source="3etEzGSmPm65g7-MEbVk-10" target="3etEzGSmPm65g7-MEbVk-6">
          <mxGeometry relative="1" as="geometry" />
        </mxCell>
      </root>
    </mxGraphModel>
  </diagram>
</mxfile>
